<svg width="16" height="12" viewBox="0 0 16 12" fill="none" xmlns="http://www.w3.org/2000/svg">
<path fill-rule="evenodd" clip-rule="evenodd" d="M2 0C0.895431 0 0 0.895431 0 2V10C0 11.1046 0.895431 12 2 12H14C15.1046 12 16 11.1046 16 10V2C16 0.895431 15.1046 0 14 0H2ZM3 2C2.44772 2 2 2.44772 2 3V9C2 9.55229 2.44772 10 3 10H13C13.5523 10 14 9.55229 14 9V3C14 2.44772 13.5523 2 13 2H3ZM7.00987 7.99006L7 8L8 9L9 8L8.01231 7.01949L8.01445 7.01735L4.50714 3.5036L3.51807 4.53137L5.01262 6.01176L3.49768 7.50731L4.52545 8.49638L6.02382 7.01337L7.00987 7.99006ZM12.5138 4.49514L11.5252 3.50657L8.01148 7.01388L9.03925 8.00295L10 7.03298L11.4408 8.48865L12.4671 7.50372L11.0029 6.0205L12.5138 4.49514Z" fill="#82868E"/>
</svg>
