<svg width="16" height="16" viewBox="0 0 16 16" fill="none" xmlns="http://www.w3.org/2000/svg">
<path fill-rule="evenodd" clip-rule="evenodd" d="M8 0C5.79086 0 4 1.79086 4 4V7C4 7.2637 4.02552 7.52144 4.07422 7.77089C1.64214 8.80016 0 10.7563 0 13C0 13.2156 0.0151583 13.4073 0.0447192 13.5775C0.0154236 13.7137 0 13.855 0 14C0 15.1046 0.895431 16 2 16H14C15.1046 16 16 15.1046 16 14C16 13.855 15.9846 13.7137 15.9553 13.5775C15.9848 13.4073 16 13.2156 16 13C16 10.7563 14.3579 8.80016 11.9258 7.77089C11.9745 7.52144 12 7.2637 12 7V4C12 1.79086 10.2091 0 8 0ZM2 13C2 11.5391 3.17477 10.2611 4.92887 9.563C5.66262 10.4413 6.76606 11 8 11C9.23394 11 10.3374 10.4413 11.0711 9.563C12.8252 10.2611 14 11.5391 14 13C14 13.1274 13.9911 13.24 13.9736 13.3393C13.9907 13.3897 14 13.4438 14 13.5C14 13.7761 13.7761 14 13.5 14H2.5C2.22386 14 2 13.7761 2 13.5C2 13.4438 2.00928 13.3897 2.02639 13.3393C2.00893 13.24 2 13.1274 2 13ZM6 4C6 2.89543 6.89543 2 8 2C9.10457 2 10 2.89543 10 4V7C10 8.10457 9.10457 9 8 9C6.89543 9 6 8.10457 6 7V4Z" fill="#82868E"/>
</svg>
