<svg width="25" height="22" viewBox="0 0 25 22" fill="none" xmlns="http://www.w3.org/2000/svg">
<path fill-rule="evenodd" clip-rule="evenodd" d="M24.1478 8.33583C23.9433 7.80021 23.4157 7.40854 22.7787 7.31955L16.5784 6.48741L13.89 1.43291C13.6085 0.902119 13.0008 0.562561 12.3325 0.562561C11.6641 0.562561 11.0564 0.902119 10.7749 1.43291L8.08649 6.48567L1.88619 7.31781C1.24847 7.40724 0.720454 7.79973 0.516159 8.33618C0.311864 8.87263 0.465187 9.46404 0.91398 9.87068L5.45756 13.9671L4.40599 19.6505C4.29446 20.2214 4.56689 20.7976 5.10658 21.1325C5.64628 21.4674 6.35753 21.5014 6.93571 21.2201L12.3325 18.5916L17.7292 21.2201C17.9849 21.3423 18.2712 21.4074 18.5625 21.4094C19.069 21.4087 19.5494 21.2129 19.8762 20.8741C20.2029 20.5353 20.3429 20.0878 20.2589 19.6505L19.2074 13.9671L23.7509 9.87068C24.1999 9.46398 24.3529 8.8722 24.1478 8.33583ZM17.8284 12.8666C17.3585 13.3743 17.2823 13.6723 17.372 14.1347L18.3939 19.6791L13.1459 17.1167C12.6402 16.87 12.0247 16.87 11.519 17.1167L6.27103 19.6791L7.29284 14.1347C7.38263 13.6723 7.2128 13.2004 6.8365 12.8666L2.42189 8.8709L8.45354 8.05787C9.00496 7.98027 9.47675 7.66867 9.71344 7.22574L12.3324 2.29718L14.9514 7.2266C15.1884 7.6692 15.6601 7.98045 16.2113 8.05787L22.243 8.87177C22.243 8.87177 19.794 10.7428 17.8284 12.8666Z" fill="#F92251"/>
</svg>
